# AST/ASF file generated using VICON BodyLanguage
# -----------------------------------------------
:version 1.10
:name VICON
:units
  mass 1.0
  length 0.45
  angle deg
:documentation
   .ast/.asf automatically generated from VICON data using
   VICON BodyBuilder and BodyLanguage model FoxedUp or BRILLIANT.MOD
:root
   order TX TY TZ RX RY RZ
   axis XYZ
   position 0 0 0  
   orientation 0 0 0 
:bonedata
  begin
     id 1 
     name lhipjoint
     direction 0.575328 -0.747301 0.332475 
     length 2.40933 
     axis 0 0 0  XYZ
  end
  begin
     id 2 
     name lfemur
     direction 0.34202 -0.939693 0  
     length 7.31453  
     axis 0 0 20  XYZ
    dof rx ry rz
    limits (-160.0 20.0)
           (-70.0 70.0)
           (-60.0 70.0)
  end
  begin
     id 3 
     name ltibia
     direction 0.34202 -0.939693 0   
     length 7.82185   
     axis 0 0 20   XYZ
    dof rx
    limits (-10.0 170.0)
  end
  begin
     id 4 
     name lfoot
     direction 0.0795993 -0.218697 0.972541   
     length 2.19173   
     axis -90 7.62852e-016 20   XYZ
    dof rx rz
    limits (-45.0 90.0)
           (-70.0 20.0)
  end
  begin
     id 5 
     name ltoes
     direction 1.53537e-011 -4.21894e-011 1   
     length 1.10023   
     axis -90 7.62852e-016 20   XYZ
    dof rx
    limits (-90.0 20.0)
  end
  begin
     id 6 
     name rhipjoint
     direction -0.513884 -0.783789 0.348708   
     length 2.29716  
     axis 0 0 0  XYZ 
  end
  begin
     id 7 
     name rfemur
     direction -0.34202 -0.939693 0   
     length 7.59573   
     axis 0 0 -20   XYZ
    dof rx ry rz
    limits (-160.0 20.0)
           (-70.0 70.0)
           (-70.0 60.0)
  end
  begin
     id 8 
     name rtibia
     direction -0.34202 -0.939693 0   
     length 7.66402   
     axis 0 0 -20   XYZ
    dof rx
    limits (-10.0 170.0)
 end
 begin
     id 9 
     name rfoot
     direction -0.137793 -0.378584 0.915253   
     length 2.27056  
     axis -90 -7.62852e-016 -20   XYZ
    dof rx rz
    limits (-45.0 90.0)
           (-20.0 70.0)
  end
  begin
     id 10 
     name rtoes
     direction -1.53493e-011 -4.22159e-011 1   
     length 1.11766   
     axis -90 -7.62852e-016 -20   XYZ
    dof rx
    limits (-90.0 20.0)
  end
  begin
     id 11 
     name lowerback
     direction -0.00732775 0.998356 -0.05685   
     length 2.16513   
     axis 0 0 0   XYZ
    dof rx ry rz
    limits (-20.0 45.0)
           (-30.0 30.0)
           (-30.0 30.0)
  end
  begin
     id 12 
     name upperback
     direction 0.0218081 0.999627 -0.0164647   
     length 2.16755   
     axis 0 0 0   XYZ
    dof rx ry rz
    limits (-20.0 45.0)
           (-30.0 30.0)
           (-30.0 30.0)
  end
  begin
     id 13 
     name thorax
     direction 0.02365 0.999661 0.0108914   
     length 2.16932   
     axis 0 0 0   XYZ
    dof rx ry rz
    limits (-20.0 45.0)
           (-30.0 30.0)
           (-30.0 30.0)
  end
  begin
     id 14 
     name lowerneck
     direction -0.0523929 0.978385 0.200044   
     length 1.63877   
     axis 0 0 0   XYZ
    dof rx ry rz
    limits (-20.0 45.0)
           (-30.0 30.0)
           (-30.0 30.0)
  end
  begin
     id 15 
     name upperneck
     direction 0.0448674 0.981321 -0.187074   
     length 1.69014   
     axis 0 0 0   XYZ
    dof rx ry rz
    limits (-20.0 45.0)
           (-30.0 30.0)
           (-30.0 30.0)
  end
  begin
     id 16
     name head
     direction 0.0199089 0.996118 -0.0857429  
     length 1.70094  
     axis 0 0 0   XYZ
    dof rx ry rz
    limits (-20.0 45.0)
           (-30.0 30.0)
           (-30.0 30.0)
  end
  begin
     id 17 
     name lclavicle
     direction 0.940366 0.30191 -0.156722  
     length 3.37521  
     axis 0 0 0   XYZ
    dof ry rz
    limits (-20.0 10.0)
           (0.0 20.0)
  end
  begin
     id 18 
     name lhumerus
     direction 1 -4.4897e-011 -1.7911e-027   
     length 5.25287   
     axis 180 -30 -90   XYZ
    dof rx ry rz
    limits (-60.0 90.0)
           (-90.0 90.0)
           (-90.0 90.0)
  end
  begin
     id 19
     name lradius
     direction 1 -4.48951e-011 1.04424e-027   
     length 3.51014   
     axis 180 -30 -90   XYZ
    dof rx
    limits (-10.0 170.0)
  end
  begin
     id 20
     name lwrist
     direction 1 -4.48997e-011 -9.5942e-028   
     length 1.75507   
     axis 8.48502e-016 90 90   XYZ
    dof ry
    limits (-180.0 0.0)
 end
  begin
     id 21 
     name lhand
     direction 1 -4.48831e-011 -1.90777e-027   
     length 0.706179   
     axis 1.22306e-015 90 90   XYZ
    dof rx rz
    limits (-90.0 90.0)
           (-45.0 45.0)
  end
  begin
     id 22 
     name lfingers
     direction 1 -4.49108e-011 -3.85244e-027   
     length 0.569339   
     axis 2.44611e-015 90 90   XYZ
    dof rx
    limits (0.0 90.0)
  end
  begin
     id 23
     name lthumb
     direction 0.707107 -6.34953e-011 0.707107   
     length 0.817461   
     axis -90 45 -1.62303e-014   XYZ
    dof rx rz
    limits (-45.0 45.0)
           (-45.0 45.0)
  end
  begin
     id 24 
     name rclavicle
     direction -0.905329 0.382405 -0.184787   
     length 3.30787  
     axis 0 0 0   XYZ 
    dof ry rz
    limits (-10.0 20.0)
           (-20.0 0.0)
  end
  begin
     id 25 
     name rhumerus
     direction -1 -4.48953e-011 -9.15316e-029  
     length 5.28721   
     axis 180 30 90   XYZ
    dof rx ry rz
    limits (-90.0 60.0)
           (-90.0 90.0)
           (-90.0 90.0)
  end
  begin
     id 26 
     name rradius
     direction -1 -4.48987e-011 9.37824e-028   
     length 3.50544   
     axis 180 30 90   XYZ
    dof rx
    limits (-10.0 170.0)
  end
  begin
     id 27 
     name rwrist
     direction -1 -4.48967e-011 -9.58414e-028   
     length 1.75272   
     axis 8.48502e-016 -90 -90   XYZ
    dof ry
    limits (-180.0 0.0)
  end
  begin
     id 28
     name rhand
     direction -1 -4.48904e-011 -1.91266e-027   
     length 0.884996   
     axis 1.22306e-015 -90 -90   XYZ
    dof rx rz
    limits (-90.0 90.0)
           (-45.0 45.0)
  end
  begin
     id 29
     name rfingers
     direction -1 -4.4909e-011 -3.85015e-027   
     length 0.713507   
     axis 2.44611e-015 -90 -90   XYZ
    dof rx
    limits (0.0 90.0)
  end
  begin
     id 30
     name rthumb
     direction -0.707107 -6.34853e-011 0.707107   
     length 1.02446   
     axis -90 -45 1.62303e-014   XYZ
    dof rx rz
    limits (-45.0 45.0)
           (-45.0 45.0)
  end
:hierarchy
  begin
    root lhipjoint rhipjoint lowerback
    lhipjoint lfemur
    lfemur ltibia
    ltibia lfoot
    lfoot ltoes
    rhipjoint rfemur
    rfemur rtibia
    rtibia rfoot
    rfoot rtoes
    lowerback upperback
    upperback thorax
    thorax lowerneck lclavicle rclavicle
    lowerneck upperneck
    upperneck head
    lclavicle lhumerus
    lhumerus lradius
    lradius lwrist
    lwrist lhand lthumb
    lhand lfingers
    rclavicle rhumerus
    rhumerus rradius
    rradius rwrist
    rwrist rhand rthumb
    rhand rfingers
  end

#!OML:ASF F:\twosubjects\two\Thursday\Session 1\justin.ASF
:FULLY-SPECIFIED
:DEGREES
50
root 7.78965 10.6622 -19.7159 3.6708 5.89418 -7.67321
lowerback 42.1169 1.30479 3.71297
upperback 6.45424 4.02936 4.81389
thorax -13.0458 1.652 1.49038
lowerneck -26.9416 -7.5176 -12.4891
upperneck -5.43787 -6.50853 10.9154
head 3.17557 -2.46116 4.80697
rclavicle 5.40694e-014 2.06736e-014
rhumerus 9.35383 3.31855 -86.7655
rradius 63.9141
rwrist -17.7716
rhand -38.56 47.2808
rfingers 7.12502
rthumb -11.5793 17.6207
lclavicle 5.40694e-014 2.06736e-014
lhumerus 23.9225 -26.577 93.8827
lradius 50.7868
lwrist 5.91692
lhand -25.3051 28.3929
lfingers 7.12502
lthumb 1.21685 58.3691
rfemur -48.8941 -25.8288 -8.57165
rtibia 99.086
rfoot -34.6379 -5.87072
rtoes -37.8621
lfemur -87.3672 31.58 -0.306523
ltibia 81.8207
lfoot 0.749249 -18.7811
ltoes -28.4745
51
root 7.81946 10.7448 -19.6557 4.02091 6.41996 -7.97879
lowerback 42.4642 1.24905 3.68779
upperback 6.44512 3.98067 4.85928
thorax -13.1719 1.62705 1.57119
lowerneck -26.0931 -7.76262 -12.0605
upperneck -7.17171 -6.95819 10.5674
head 2.54317 -2.73314 4.60403
rclavicle -1.07344e-014 -6.63941e-014
rhumerus 9.5422 2.79531 -86.8995
rradius 64.3969
rwrist -18.0683
rhand -37.3587 46.7482
rfingers 7.12502
rthumb -10.4206 17.0264
lclavicle -1.07344e-014 -6.63941e-014
lhumerus 23.4353 -26.4473 94.6818
lradius 52.1432
lwrist 5.2687
lhand -25.4909 29.0255
lfingers 7.12502
lthumb 1.03748 59.0028
rfemur -48.3992 -24.9534 -8.22444
rtibia 98.4581
rfoot -34.1403 -6.15364
rtoes -37.036
lfemur -87.3734 30.9436 -0.197286
ltibia 81.5188
lfoot 0.314974 -18.5828
ltoes -30.7858
52
root 7.85091 10.8418 -19.5857 4.48316 6.88462 -8.03796
lowerback 42.4546 1.18866 3.36403
upperback 6.53488 3.75977 4.85554
thorax -13.0826 1.54528 1.83622
lowerneck -23.2202 -7.67457 -9.37851
upperneck -11.6836 -7.68712 7.75426
head 0.610467 -3.34087 3.35209
rclavicle -7.95139e-015 -5.4467e-014
rhumerus 9.70642 2.37111 -87.2044
rradius 65.1159
rwrist -18.3078
rhand -35.8768 45.6647
rfingers 7.12502
rthumb -8.99094 15.8763
lclavicle -7.95139e-015 -5.4467e-014
lhumerus 23.2679 -26.1731 95.0531
lradius 53.5392
lwrist 5.60127
lhand -26.2774 30.0876
lfingers 7.12502
lthumb 0.277818 60.0672
rfemur -47.9715 -24.1866 -8.06291
rtibia 97.747
rfoot -33.5126 -6.82835
rtoes -37.3067
lfemur -87.4363 30.3753 -0.312017
ltibia 81.282
lfoot 0.538106 -18.2763
ltoes -30.7045
53
root 7.88698 10.9349 -19.5139 5.12849 7.3781 -7.81172
lowerback 42.1126 1.11384 2.86909
upperback 6.68611 3.3999 4.68056
thorax -12.8062 1.4133 2.06918
lowerneck -25.6107 -8.07055 -11.802
upperneck -9.15326 -7.39795 10.6625
head 1.91242 -2.96868 4.58304
rclavicle -1.98785e-014 -1.63003e-014
rhumerus 10.0585 2.17014 -87.6153
rradius 65.5851
rwrist -17.8626
rhand -35.2474 44.229
rfingers 7.12502
rthumb -8.38354 14.4154
lclavicle -1.98785e-014 -1.63003e-014
lhumerus 23.2173 -25.6336 95.4239
lradius 54.8198
lwrist 6.06482
lhand -27.487 30.8261
lfingers 7.12502
lthumb -0.890446 60.804
rfemur -47.5833 -23.8162 -8.28574
rtibia 97.1487
rfoot -33.2792 -6.82623
rtoes -36.7059
lfemur -87.6995 29.7109 -0.869767
ltibia 81.0815
lfoot 0.128904 -17.7951
ltoes -31.8274
54
root 7.92688 11.0273 -19.4541 5.71288 7.92014 -7.63712
lowerback 42.0058 1.06909 2.58669
upperback 6.7248 3.18049 4.43553
thorax -12.7177 1.32976 2.04836
lowerneck -25.9941 -8.30289 -12.4994
upperneck -8.98546 -7.48319 11.8083
head 2.11786 -2.93332 5.04322
rclavicle -1.51076e-014 -1.94809e-014
rhumerus 10.1939 1.86501 -87.9598
rradius 66.0347
rwrist -17.0344
rhand -35.7 42.5696
rfingers 7.12502
rthumb -8.8203 12.7739
lclavicle -1.51076e-014 -1.94809e-014
lhumerus 22.9478 -25.3695 95.9862
lradius 56.1983
lwrist 6.43647
lhand -28.498 31.5447
lfingers 7.12502
lthumb -1.86687 61.5163
rfemur -47.038 -23.3554 -8.52222
rtibia 96.4606
rfoot -33.3067 -6.39209
rtoes -35.1209
lfemur -87.9555 28.9963 -1.48067
ltibia 80.8371
lfoot -0.620666 -17.2355
ltoes -32.7043
55
root 7.96325 11.1334 -19.3895 6.12589 8.48072 -7.71783
lowerback 41.9886 1.01951 2.44938
upperback 6.84454 3.04342 4.35138
thorax -12.5701 1.27719 2.09037
lowerneck -26.0321 -8.66027 -12.7952
upperneck -9.38095 -7.85255 12.4064
head 2.09195 -3.08548 5.24576
rclavicle -2.38542e-015 1.37161e-014
rhumerus 10.248 1.46695 -88.3332
rradius 66.9433
rwrist -17.124
rhand -35.8683 42.6448
rfingers 7.12502
rthumb -8.98269 12.8561
lclavicle -2.38542e-015 1.37161e-014
lhumerus 22.9801 -25.1141 96.5436
lradius 57.4983
lwrist 6.70458
lhand -28.8906 31.7392
lfingers 7.12502
lthumb -2.24607 61.7072
rfemur -46.246 -22.4885 -8.38705
rtibia 95.4582
rfoot -33.1383 -6.77145
rtoes -34.8097
lfemur -88.0052 28.4557 -1.81829
ltibia 80.499
lfoot -0.646332 -16.709
ltoes -31.1165
56
root 7.99559 11.2457 -19.3204 6.5983 9.045 -8.1533
lowerback 41.6532 0.93777 2.42785
upperback 7.00138 2.92453 4.41873
thorax -12.2843 1.23151 2.23152
lowerneck -26.2954 -9.09352 -13.3479
upperneck -9.40173 -8.24831 13.2132
head 2.24026 -3.22741 5.5427
rclavicle -2.06736e-014 -3.77691e-015
rhumerus 10.269 1.28004 -88.7596
rradius 68.0224
rwrist -17.8361
rhand -36.1912 43.7492
rfingers 7.12502
rthumb -9.2943 13.974
lclavicle -2.06736e-014 -3.77691e-015
lhumerus 23.0108 -24.642 97.0439
lradius 58.8815
lwrist 6.18704
lhand -28.307 31.307
lfingers 7.12502
lthumb -1.68243 61.2801
rfemur -45.5754 -21.5105 -7.65479
rtibia 94.29
rfoot -32.7547 -7.93507
rtoes -35.418
lfemur -88.2235 28.1753 -1.97751
ltibia 80.0641
lfoot -0.941322 -16.5292
ltoes -31.1603
57
root 8.03028 11.3711 -19.2546 7.07334 9.5824 -8.65514
lowerback 41.4479 0.8959 2.46158
upperback 6.95293 2.8863 4.4322
thorax -12.2729 1.21572 2.24684
lowerneck -25.7992 -9.33463 -13.6568
upperneck -9.84257 -8.53167 13.9494
head 2.14702 -3.35294 5.80916
rclavicle -4.47266e-014 -1.64991e-014
rhumerus 9.8199 1.23428 -89.1685
rradius 69.226
rwrist -18.7805
rhand -36.7738 43.9901
rfingers 7.12502
rthumb -9.85642 14.2408
lclavicle -4.47266e-014 -1.64991e-014
lhumerus 22.5582 -24.5247 97.236
lradius 60.7598
lwrist 5.42385
lhand -27.4699 32.1435
lfingers 7.12502
lthumb -0.873931 62.1215
rfemur -44.9324 -20.4171 -6.94786
rtibia 92.9506
rfoot -32.5203 -8.203
rtoes -34.4283
lfemur -88.3412 27.9518 -2.08899
ltibia 79.532
lfoot -1.68767 -16.6657
ltoes -33.1018
58
root 8.0728 11.5013 -19.1827 7.63565 10.1162 -8.63462
lowerback 41.2886 0.819392 2.24658
upperback 6.86133 2.67371 4.23771
thorax -12.3181 1.1307 2.24213
lowerneck -25.3691 -9.68537 -14.3615
upperneck -10.2801 -8.8479 15.2061
head 2.12955 -3.46459 6.30343
rclavicle 2.78299e-014 -1.98785e-016
rhumerus 9.21203 1.37022 -89.6712
rradius 70.6274
rwrist -19.7132
rhand -36.9198 44.0279
rfingers 7.12502
rthumb -9.99724 14.2853
lclavicle 2.78299e-014 -1.98785e-016
lhumerus 22.1998 -24.5483 97.1445
lradius 62.6966
lwrist 4.96734
lhand -27.5145 34.5361
lfingers 7.12502
lthumb -0.917 64.5138
rfemur -44.0292 -19.6208 -6.96527
rtibia 91.4624
rfoot -32.5377 -7.87815
rtoes -32.5444
lfemur -88.3723 27.5935 -2.70116
ltibia 78.9749
lfoot -2.06878 -16.8469
ltoes -34.1431
